<svg width="729" height="621" viewBox="0 0 729 621" fill="none" xmlns="http://www.w3.org/2000/svg">
<path d="M591.143 304.397L581.842 255.27L619.737 222.652L666.933 239.16L676.234 288.288L638.339 320.906L591.143 304.397Z" fill="#D01111"/>
<path d="M608.365 404.762L562.259 388.635L553.172 340.642L590.192 308.777L636.298 324.904L645.385 372.897L608.365 404.762Z" fill="#C4C4C4" stroke="#D01111" stroke-width="2"/>
<path d="M579.411 251.561L533.305 235.433L524.218 187.441L561.238 155.575L607.344 171.703L616.431 219.695L579.411 251.561Z" fill="#C4C4C4" stroke="#D01111" stroke-width="2"/>
<path d="M549.651 336.551L503.545 320.424L494.459 272.431L531.479 240.566L577.585 256.693L586.671 304.686L549.651 336.551Z" fill="#C4C4C4" stroke="#D01111" stroke-width="2"/>
<path d="M373.156 368.31L326.191 351.156L317.564 301.906L355.903 269.81L402.868 286.964L411.495 336.214L373.156 368.31Z" fill="#00D957" fill-opacity="0.87"/>
<path d="M467.41 403.818L429.957 435.173L384.076 418.415L375.649 370.302L413.102 338.947L458.983 355.705L467.41 403.818Z" fill="white" stroke="#D01111" stroke-width="2"/>
<path d="M380.41 417.818L342.957 449.173L297.076 432.415L288.649 384.302L326.102 352.947L371.983 369.705L380.41 417.818Z" fill="white" stroke="#D01111" stroke-width="2"/>
<path d="M441.41 252.818L403.957 284.173L358.076 267.415L349.649 219.302L387.102 187.947L432.983 204.705L441.41 252.818Z" fill="white" stroke="#D01111" stroke-width="2"/>
<path d="M353.41 267.818L315.957 299.173L270.076 282.415L261.649 234.302L299.102 202.947L344.983 219.705L353.41 267.818Z" fill="white" stroke="#D01111" stroke-width="2"/>
<path d="M323.41 350.818L285.957 382.173L240.076 365.415L231.649 317.302L269.102 285.947L314.983 302.705L323.41 350.818Z" fill="white" stroke="#D01111" stroke-width="2"/>
<path d="M498.41 320.818L460.957 352.173L415.076 335.415L406.649 287.302L444.102 255.947L489.983 272.705L498.41 320.818Z" fill="white" stroke="#D01111" stroke-width="2"/>
<path d="M491.651 507.024L530.108 475.07L577.01 492.398L585.454 541.68L546.997 573.634L500.095 556.305L491.651 507.024Z" fill="#D01111"/>
<path d="M412.222 570.747L403.973 522.603L441.542 491.387L487.36 508.315L495.609 556.459L458.04 587.675L412.222 570.747Z" fill="#C4C4C4" stroke="#D01111" stroke-width="2"/>
<path d="M532.174 471.145L523.925 423.001L561.494 391.786L607.312 408.714L615.561 456.857L577.992 488.073L532.174 471.145Z" fill="#C4C4C4" stroke="#D01111" stroke-width="2"/>
<path d="M443.413 486.324L435.164 438.181L472.733 406.965L518.551 423.893L526.8 472.037L489.231 503.252L443.413 486.324Z" fill="#C4C4C4" stroke="#D01111" stroke-width="2"/>
<path d="M138.483 331.688L147.268 380.911L109.033 413.13L62.0128 396.127L53.2275 346.905L91.4625 314.686L138.483 331.688Z" fill="#D01111"/>
<path d="M122.315 231.149L168.249 247.759L176.831 295.844L139.479 327.319L93.545 310.709L84.9626 262.624L122.315 231.149Z" fill="#C4C4C4" stroke="#D01111" stroke-width="2"/>
<path d="M149.66 384.645L195.595 401.255L204.177 449.341L166.825 480.816L120.891 464.206L112.308 416.121L149.66 384.645Z" fill="#C4C4C4" stroke="#D01111" stroke-width="2"/>
<path d="M180.309 299.972L226.244 316.582L234.826 364.667L197.474 396.142L151.54 379.532L142.957 331.447L180.309 299.972Z" fill="#C4C4C4" stroke="#D01111" stroke-width="2"/>
<path d="M383.41 181.818L345.957 213.173L300.076 196.415L291.649 148.302L329.102 116.947L374.983 133.705L383.41 181.818Z" fill="#3711D0" stroke="#3711D0" stroke-width="2"/>
<path d="M528.41 235.818L490.957 267.173L445.077 250.415L436.649 202.302L474.102 170.947L519.983 187.705L528.41 235.818Z" fill="#3711D0" stroke="#3711D0" stroke-width="2"/>
<path d="M264.41 280.818L226.957 312.173L181.076 295.415L172.649 247.302L210.102 215.947L255.983 232.705L264.41 280.818Z" fill="#3711D0" stroke="#3711D0" stroke-width="2"/>
<path d="M291.41 432.818L253.957 464.173L208.076 447.415L199.649 399.302L237.102 367.947L282.983 384.705L291.41 432.818Z" fill="#3711D0" stroke="#3711D0" stroke-width="2"/>
<path d="M556.41 388.818L518.957 420.173L473.077 403.415L464.649 355.302L502.102 323.947L547.983 340.705L556.41 388.818Z" fill="#3711D0" stroke="#3711D0" stroke-width="2"/>
<path d="M438.41 486.818L400.957 518.173L355.076 501.415L346.649 453.302L384.102 421.947L429.983 438.705L438.41 486.818Z" fill="#3711D0" stroke="#3711D0" stroke-width="2"/>
<path d="M238.717 128.769L200.629 161.161L153.532 144.372L144.524 95.1903L182.612 62.7979L229.709 79.5873L238.717 128.769Z" fill="#D01111"/>
<path d="M317.411 64.1397L326.211 112.186L289.002 143.83L242.993 127.428L234.193 79.3823L271.402 47.738L317.411 64.1397Z" fill="#C4C4C4" stroke="#D01111" stroke-width="2"/>
<path d="M198.608 165.11L207.409 213.156L170.2 244.8L124.191 228.398L115.39 180.352L152.599 148.708L198.608 165.11Z" fill="#C4C4C4" stroke="#D01111" stroke-width="2"/>
<path d="M287.19 148.914L295.99 196.96L258.781 228.604L212.772 212.203L203.972 164.157L241.181 132.512L287.19 148.914Z" fill="#C4C4C4" stroke="#D01111" stroke-width="2"/>
<path d="M464.873 115.345L417.966 98.0325L409.505 48.7536L447.951 16.7867L494.859 34.0987L503.32 83.3776L464.873 115.345Z" fill="#D01111"/>
<path d="M559.787 152.238L522.228 183.467L476.404 166.554L468.139 118.414L505.697 87.1849L551.521 104.097L559.787 152.238Z" fill="#C4C4C4" stroke="#D01111" stroke-width="2"/>
<path d="M413.535 98.2076L375.976 129.436L330.152 112.524L321.886 64.3833L359.445 33.1546L405.269 50.0668L413.535 98.2076Z" fill="#C4C4C4" stroke="#D01111" stroke-width="2"/>
<path d="M471.085 167.468L433.526 198.696L387.702 181.784L379.437 133.643L416.995 102.415L462.819 119.327L471.085 167.468Z" fill="#C4C4C4" stroke="#D01111" stroke-width="2"/>
<path d="M264.645 520.31L311.711 537.187L320.628 586.386L282.479 618.707L235.413 601.83L226.496 552.632L264.645 520.31Z" fill="#D01111"/>
<path d="M169.394 484.297L206.662 452.722L252.64 469.209L261.351 517.272L224.084 548.847L178.105 532.36L169.394 484.297Z" fill="#C4C4C4" stroke="#D01111" stroke-width="2"/>
<path d="M316.14 536.971L353.408 505.396L399.387 521.883L408.098 569.945L370.83 601.52L324.852 585.033L316.14 536.971Z" fill="#C4C4C4" stroke="#D01111" stroke-width="2"/>
<path d="M257.951 468.247L295.219 436.672L341.198 453.159L349.909 501.221L312.641 532.796L266.662 516.309L257.951 468.247Z" fill="#C4C4C4" stroke="#D01111" stroke-width="2"/>
</svg>
